<svg xmlns="http://www.w3.org/2000/svg" xmlns:xlink="http://www.w3.org/1999/xlink" height="100px" width="100px" fill="#000000" version="1.1" x="0px" y="0px" viewBox="0 0 100 100" enable-background="new 0 0 100 100" xml:space="preserve"><path d="M75,23v-3h-3h-3h-3h-3h-3h-3h-3h-3v3h-3v3v3v3v3v3v3h-3v3h-3v3h-3v3h-3v3h-3h-3v-3h-3v-3h-3v-3v-3h-3v3v3v3v3v3h3v3h3v3h3v3  h3v3h3v3v3v3v3h3h3v-3h-3v-3h3v-3h3v-3h3h3v3h3h3v-3h-3v-3h3v-3h3v-3v-3v-3v-3v-3h3v3h3v-3v-3h-3h-3v-3h3h3h3h3v-3h-3h-3h-3v-3h3h3  h3h3h3v-3v-3v-3v-3H75z M57,23v3h-3v-3H57z"/></svg>